<svg id="Layer_1" enable-background="new 0 0 512 512" height="512" viewBox="0 0 512 512" width="512" xmlns="http://www.w3.org/2000/svg"><g><path d="m384.533 271h-305.266c-42.78 0-79.267-34.487-79.267-79.267v-112.466c0-44.788 36.483-79.267 79.267-79.267h305.267c42.785 0 79.266 34.48 79.266 79.267v112.467c0 44.783-36.489 79.266-79.267 79.266z" fill="#ff6b6b"/><path d="m79.267 271h305.267c42.777 0 79.267-34.483 79.267-79.267v-56.23h-463.801v56.23c0 44.78 36.487 79.267 79.267 79.267z" fill="#ff3d7d"/><g fill="#fff7f4"><path d="m115.417 64.267h-36.15c-8.284 0-15 6.716-15 15v112.467c0 8.284 6.716 15 15 15h36.15c23.508 0 43.116-19.075 43.116-43.117 0-10.276-3.778-20.349-10.459-28.113 6.768-7.819 10.459-17.686 10.459-28.12 0-23.531-19.145-43.117-43.116-43.117zm0 112.466h-21.15v-26.233h21.15c7.155 0 13.116 5.842 13.116 13.117 0 4.335-3.487 13.116-13.116 13.116zm0-56.233h-21.15v-26.233h21.15c7.371 0 13.116 6.09 13.116 13.117 0 7.339-6.059 13.116-13.116 13.116z"/><path d="m264.033 64.267c-8.284 0-15 6.716-15 15v80.333c0 9.447-7.686 17.133-17.133 17.133s-17.134-7.686-17.134-17.133v-80.333c0-8.284-6.716-15-15-15s-15 6.716-15 15v80.333c0 25.989 21.145 47.133 47.134 47.133s47.133-21.144 47.133-47.133v-80.333c0-8.285-6.716-15-15-15z"/><path d="m384.533 64.267c-8.284 0-15 6.716-15 15v32.133c0 9.447-7.686 17.133-17.133 17.133s-17.134-7.686-17.134-17.133v-32.133c0-8.284-6.716-15-15-15s-15 6.716-15 15v32.133c0 20.745 13.479 38.391 32.134 44.672v35.662c0 8.284 6.716 15 15 15s15-6.716 15-15v-35.662c18.655-6.281 32.133-23.926 32.133-44.672v-32.133c0-8.285-6.716-15-15-15z"/></g><path d="m398.596 503.714-26.144-52.202-45.475 22.75c-4.648 2.327-10.172 2.078-14.596-.654-4.423-2.733-7.115-7.562-7.115-12.761v-220.917c0-5.682 3.21-10.875 8.292-13.417 5.082-2.541 11.164-1.992 15.708 1.417l176.734 132.551c4.158 3.119 6.406 8.168 5.939 13.346-.466 5.177-3.579 9.744-8.229 12.069l-45.476 22.75 26.074 52.189c3.702 7.408.699 16.414-6.707 20.119l-58.884 29.458c-7.389 3.697-16.405.724-20.121-6.698z" fill="#1e354b"/><path d="m477.602 480.954c7.406-3.705 10.409-12.711 6.707-20.119l-26.074-52.189 45.476-22.75c4.649-2.326 7.763-6.893 8.229-12.069.467-5.177-1.781-10.227-5.939-13.346l-176.735-132.551c-4.544-3.409-10.626-3.957-15.708-1.417l134.572 269.186z" fill="#000f28"/><g fill="#f0e6e6"><path d="m79.267 206.733h36.15c23.508 0 43.116-19.075 43.116-43.117 0-10.276-3.778-20.349-10.459-28.113h-83.807v56.23c0 8.285 6.715 15 15 15zm15-56.233h21.15c7.155 0 13.116 5.842 13.116 13.117 0 4.336-3.487 13.117-13.116 13.117h-21.15z"/><path d="m231.9 206.733c25.989 0 47.133-21.144 47.133-47.133v-24.097h-30v24.097c0 9.447-7.686 17.133-17.133 17.133s-17.134-7.686-17.134-17.133v-24.097h-30v24.097c.001 25.989 21.145 47.133 47.134 47.133z"/><path d="m337.4 156.072v35.662c0 8.284 6.716 15 15 15s15-6.716 15-15v-35.662c10.737-3.615 19.752-11 25.476-20.568h-80.953c5.725 9.568 14.74 16.952 25.477 20.568z"/></g></g></svg>