<svg id="Layer_1" enable-background="new 0 0 512 512" height="512" viewBox="0 0 512 512" width="512" xmlns="http://www.w3.org/2000/svg"><g><path d="m432.733 0h-64.267c-8.284 0-15 6.716-15 15v176.733c0 8.284 6.716 15 15 15h64.267c8.284 0 15-6.716 15-15v-176.733c0-8.284-6.715-15-15-15z" fill="#4793ff"/><path d="m432.733 512h-353.466c-8.284 0-15-6.716-15-15v-226h-49.267c-6.067 0-11.537-3.654-13.858-9.26-2.321-5.605-1.038-12.057 3.252-16.347l241-241c5.857-5.857 15.355-5.857 21.213 0l241 241c4.29 4.29 5.573 10.741 3.252 16.347-2.322 5.605-7.792 9.26-13.858 9.26h-49.267v226c-.001 8.284-6.717 15-15.001 15z" fill="#4793ff"/><path d="m432.733 512c8.284 0 15-6.716 15-15v-226h49.267c6.067 0 11.537-3.654 13.858-9.26 2.321-5.605 1.038-12.057-3.252-16.347l-241-241c-2.928-2.929-6.767-4.393-10.606-4.393v512z" fill="#525cdd"/><path d="m288.133 305.267h-64.267c-9.447 0-17.133-7.686-17.133-17.133s7.686-17.134 17.134-17.134h80.333c8.284 0 15-6.716 15-15s-6.716-15-15-15h-33.2v-17.134c0-8.284-6.716-15-15-15s-15 6.716-15 15v17.134h-17.133c-25.989 0-47.133 21.145-47.133 47.134s21.144 47.133 47.133 47.133h64.267c9.447 0 17.133 7.687 17.133 17.134s-7.686 17.133-17.133 17.133h-80.334c-8.284 0-15 6.716-15 15s6.716 15 15 15h33.2v17.134c0 8.284 6.716 15 15 15s15-6.716 15-15v-17.134h17.133c25.989 0 47.133-21.144 47.133-47.133s-21.143-47.134-47.133-47.134z" fill="#ffd321"/><g fill="#ffb454"><path d="m288.133 305.267h-32.133v30h32.133c9.447 0 17.133 7.687 17.133 17.134s-7.686 17.133-17.133 17.133h-32.133v62.134c8.284 0 15-6.716 15-15v-17.134h17.133c25.989 0 47.133-21.144 47.133-47.133s-21.143-47.134-47.133-47.134z"/><path d="m304.2 271c8.284 0 15-6.716 15-15s-6.716-15-15-15h-33.2v-17.134c0-8.284-6.716-15-15-15v62.134z"/></g></g></svg>