<svg id="Layer_1" enable-background="new 0 0 512 512" height="512" viewBox="0 0 512 512" width="512" xmlns="http://www.w3.org/2000/svg"><g><path d="m400.6 415.6h-289.2c-25.989 0-47.133-21.144-47.133-47.133v-17.133c0-8.284 6.716-15 15-15s15 6.716 15 15v17.133c0 9.447 7.686 17.133 17.133 17.133h289.2c8.284 0 15 6.716 15 15s-6.716 15-15 15z" fill="#4793ff"/><path d="m272.067 415.6h128.533c8.284 0 15-6.716 15-15s-6.716-15-15-15h-128.533z" fill="#525cdd"/><path d="m79.267 111.4c-8.284 0-15-6.716-15-15v-49.267c0-9.448-7.639-17.133-17.134-17.133h-32.133c-8.284 0-15-6.716-15-15s6.716-15 15-15h32.133c26.033 0 47.133 21.058 47.133 47.133v49.267c.001 8.284-6.715 15-14.999 15z" fill="#5ecbf1"/><path d="m504.948 98.67c-2.465-1.556-5.369-2.27-8.284-2.27h-432.398v254.934h400.6c7.465 0 13.793-5.489 14.849-12.879l32.133-224.933c.823-5.75-1.743-11.597-6.9-14.852zm-346.415 173.397c0 8.525-7.111 15.389-15.725 14.983-8.068-.38-14.275-7.33-14.275-15.407v-95.553c0-8.077 6.207-15.027 14.275-15.407 8.614-.406 15.725 6.458 15.725 14.983zm64.267 0c0 8.525-7.111 15.389-15.725 14.983-8.068-.38-14.275-7.33-14.275-15.407v-95.553c0-8.077 6.207-15.027 14.275-15.407 8.614-.406 15.725 6.458 15.725 14.983zm64.267 0c0 8.525-7.111 15.389-15.725 14.983-8.068-.38-14.275-7.33-14.275-15.407v-95.553c0-8.077 6.207-15.027 14.275-15.407 8.614-.406 15.725 6.458 15.725 14.983zm64.266 0c0 8.525-7.111 15.389-15.725 14.983-8.068-.38-14.275-7.33-14.275-15.407v-95.553c0-8.077 6.207-15.027 14.275-15.407 8.614-.406 15.725 6.458 15.725 14.983zm64.267 0c0 8.525-7.111 15.389-15.725 14.983-8.068-.38-14.275-7.33-14.275-15.407v-95.553c0-8.077 6.207-15.027 14.275-15.407 8.614-.406 15.725 6.458 15.725 14.983z" fill="#ff6b6b"/><path d="m497 96.4h-224.933v64.267c8.284 0 15 6.716 15 15v96.4c0 8.284-6.716 15-15 15v64.267h192.8c7.465 0 13.793-5.489 14.849-12.879l32.133-224.933c.615-4.305-.668-8.665-3.517-11.95s-6.983-5.172-11.332-5.172zm-145.667 175.667c0 8.284-6.716 15-15 15s-15-6.716-15-15v-96.4c0-8.284 6.716-15 15-15s15 6.716 15 15zm64.267 0c0 8.284-6.716 15-15 15s-15-6.716-15-15v-96.4c0-8.284 6.716-15 15-15s15 6.716 15 15z" fill="#ff3d7d"/><ellipse cx="175.667" cy="448.8" fill="#1e354b" rx="63.2" ry="63.2" transform="matrix(.707 -.707 .707 .707 -265.898 255.666)"/><path d="m175.666 512v-126.4c34.849 0 63.2 28.351 63.2 63.2s-28.351 63.2-63.2 63.2z" fill="#000f28"/><ellipse cx="400.6" cy="448.8" fill="#1e354b" rx="63.2" ry="63.2" transform="matrix(.707 -.707 .707 .707 -200.016 414.718)"/><path d="m400.6 512v-126.4c34.849 0 63.2 28.351 63.2 63.2s-28.351 63.2-63.2 63.2z" fill="#000f28"/></g></svg>