<svg id="Layer_1" enable-background="new 0 0 512 512" height="512" viewBox="0 0 512 512" width="512" xmlns="http://www.w3.org/2000/svg"><g><path d="m497 512h-177.8c-16.569 0-30-13.431-30-30v-162.8h-66.4v162.8c0 16.569-13.431 30-30 30h-177.8c-8.284 0-15-6.716-15-15v-306.067c0-8.284 6.716-15 15-15h482c8.284 0 15 6.716 15 15v306.067c0 8.284-6.716 15-15 15z" fill="#fff7f4"/><path d="m497 175.933h-241v143.267h33.2v162.8c0 16.569 13.431 30 30 30h177.8c8.284 0 15-6.716 15-15v-306.067c0-8.284-6.716-15-15-15z" fill="#f0e6e6"/><path d="m319.2 512h-126.4v-207.8c0-8.284 6.716-15 15-15h96.4c8.284 0 15 6.716 15 15z" fill="#3c5a6e"/><path d="m128.533 415.6h-64.266c-8.284 0-15-6.716-15-15v-96.4c0-8.284 6.716-15 15-15h64.267c8.284 0 15 6.716 15 15v96.4c-.001 8.284-6.717 15-15.001 15z" fill="#5ecbf1"/><path d="m447.733 415.6h-64.267c-8.284 0-15-6.716-15-15v-96.4c0-8.284 6.716-15 15-15h64.267c8.284 0 15 6.716 15 15v96.4c0 8.284-6.715 15-15 15z" fill="#4793ff"/><path d="m143 15c0-8.284-6.716-15-15-15h-64.8c-34.904 0-63.2 28.296-63.2 63.2v127.733c0 35.346 28.654 64 64 64s64-28.654 64-64c8.284 0 15-6.716 15-15z" fill="#ff6b6b"/><path d="m0 158.533v32.4c0 35.346 28.654 64 64 64s64-28.654 64-64c8.284 0 15-6.716 15-15v-17.4z" fill="#ff3d7d"/><path d="m271 15c0-8.284-6.716-15-15-15h-128v190.933c0 35.346 28.654 64 64 64s64-28.654 64-64c8.284 0 15-6.716 15-15z" fill="#fff7f4"/><path d="m128 158.533v32.4c0 35.346 28.654 64 64 64s64-28.654 64-64c8.284 0 15-6.716 15-15v-17.4z" fill="#f0e6e6"/><path d="m399 15c0-8.284-6.716-15-15-15h-128v190.933c0 35.346 28.654 64 64 64s64-28.654 64-64c8.284 0 15-6.716 15-15z" fill="#ff3d7d"/><path d="m256 158.533v32.4c0 35.346 28.654 64 64 64s64-28.654 64-64c8.284 0 15-6.716 15-15v-17.4z" fill="#c1126b"/><path d="m384 0h64.8c34.904 0 63.2 28.296 63.2 63.2v127.733c0 35.346-28.654 64-64 64s-64-28.654-64-64z" fill="#f0e6e6"/><path d="m384 158.533v32.4c0 35.346 28.654 64 64 64s64-28.654 64-64v-32.4z" fill="#d2cbd7"/><path d="m304.2 289.2h-48.2v222.8h63.2v-207.8c0-8.284-6.716-15-15-15z" fill="#1e354b"/></g></svg>